<svg width="79" height="81" viewBox="0 0 79 81" fill="none" xmlns="http://www.w3.org/2000/svg">
<path fill-rule="evenodd" clip-rule="evenodd" d="M39.4984 8.28047C28.8924 8.28047 20.9776 16.0582 20.9776 24.8414C20.9776 27.128 19.1349 28.9816 16.8618 28.9816C14.5888 28.9816 12.7461 27.128 12.7461 24.8414C12.7461 10.76 25.1021 0 39.4984 0C53.8946 0 66.2507 10.76 66.2507 24.8414C66.2507 27.128 64.408 28.9816 62.1349 28.9816C59.8619 28.9816 58.0192 27.128 58.0192 24.8414C58.0192 16.0582 50.1044 8.28047 39.4984 8.28047Z" fill="#6100FF"/>
<path fill-rule="evenodd" clip-rule="evenodd" d="M16.8618 49.7891C19.1349 49.7891 20.9776 51.6427 20.9776 53.9293C20.9776 62.7125 28.8924 70.4902 39.4984 70.4902C50.1044 70.4902 58.0192 62.7125 58.0192 53.9293C58.0192 51.6427 59.8619 49.7891 62.1349 49.7891C64.408 49.7891 66.2507 51.6427 66.2507 53.9293C66.2507 68.0107 53.8946 78.7707 39.4984 78.7707C25.1021 78.7707 12.7461 68.0107 12.7461 53.9293C12.7461 51.6427 14.5888 49.7891 16.8618 49.7891Z" fill="#6100FF"/>
<path fill-rule="evenodd" clip-rule="evenodd" d="M0.113281 39.7571C0.113281 37.4998 1.96943 35.6699 4.2591 35.6699H74.7381C77.0278 35.6699 78.8839 37.4998 78.8839 39.7571C78.8839 42.0144 77.0278 43.8442 74.7381 43.8442H4.2591C1.96943 43.8442 0.113281 42.0144 0.113281 39.7571Z" fill="#6100FF"/>
<path fill-rule="evenodd" clip-rule="evenodd" d="M39.8684 54.248C42.1257 54.248 43.9556 56.0628 43.9556 58.3014V72.4882C43.9556 74.7269 42.1257 76.5416 39.8684 76.5416C37.6111 76.5416 35.7812 74.7269 35.7812 72.4882V58.3014C35.7812 56.0628 37.6111 54.248 39.8684 54.248Z" fill="#6100FF"/>
<path fill-rule="evenodd" clip-rule="evenodd" d="M13.9276 1.24374C15.5031 -0.41458 18.0573 -0.41458 19.6327 1.24374L25.6838 7.61333C27.2592 9.27166 27.2592 11.9603 25.6838 13.6186C24.1084 15.277 21.5542 15.277 19.9788 13.6186L13.9276 7.24905C12.3522 5.59073 12.3522 2.90206 13.9276 1.24374Z" fill="#6100FF"/>
<path fill-rule="evenodd" clip-rule="evenodd" d="M65.0705 1.24374C66.6459 2.90206 66.6459 5.59073 65.0705 7.24905L59.0194 13.6186C57.444 15.277 54.8898 15.277 53.3144 13.6186C51.739 11.9603 51.739 9.27166 53.3144 7.61333L59.3655 1.24374C60.9409 -0.41458 63.4951 -0.41458 65.0705 1.24374Z" fill="#6100FF"/>
<path fill-rule="evenodd" clip-rule="evenodd" d="M25.6838 67.3814C27.2592 69.0398 27.2592 71.7284 25.6838 73.3867L19.6327 79.7563C18.0573 81.4147 15.5031 81.4147 13.9276 79.7563C12.3522 78.098 12.3522 75.4094 13.9276 73.751L19.9788 67.3814C21.5542 65.7231 24.1084 65.7231 25.6838 67.3814Z" fill="#6100FF"/>
<path fill-rule="evenodd" clip-rule="evenodd" d="M53.3144 67.3814C54.8898 65.7231 57.444 65.7231 59.0194 67.3814L65.0705 73.751C66.6459 75.4094 66.6459 78.098 65.0705 79.7563C63.4951 81.4147 60.9409 81.4147 59.3655 79.7563L53.3144 73.3867C51.739 71.7284 51.739 69.0398 53.3144 67.3814Z" fill="#6100FF"/>
</svg>
