<svg width="43" height="42" viewBox="2 2 39 38" fill="none" xmlns="http://www.w3.org/2000/svg">
<path d="M22.5 4.125C18.9647 4.125 15.5087 5.17335 12.5692 7.13748C9.62966 9.10161 7.33858 11.8933 5.98566 15.1595C4.63274 18.4258 4.27876 22.0198 4.96847 25.4872C5.65818 28.9547 7.36061 32.1397 9.86047 34.6395C12.3603 37.1394 15.5454 38.8418 19.0128 39.5315C22.4802 40.2212 26.0742 39.8673 29.3405 38.5143C32.6067 37.1614 35.3984 34.8703 37.3625 31.9308C39.3267 28.9913 40.375 25.5353 40.375 22C40.37 17.2608 38.4851 12.7171 35.134 9.36599C31.7829 6.01487 27.2392 4.13 22.5 4.125ZM30.3478 18.8478L20.7228 28.4728C20.5951 28.6007 20.4435 28.7021 20.2766 28.7713C20.1096 28.8405 19.9307 28.8761 19.75 28.8761C19.5693 28.8761 19.3904 28.8405 19.2235 28.7713C19.0565 28.7021 18.9049 28.6007 18.7772 28.4728L14.6522 24.3478C14.3942 24.0898 14.2492 23.7399 14.2492 23.375C14.2492 23.0101 14.3942 22.6602 14.6522 22.4022C14.9102 22.1442 15.2601 21.9992 15.625 21.9992C15.9899 21.9992 16.3398 22.1442 16.5978 22.4022L19.75 25.5561L28.4022 16.9022C28.5299 16.7744 28.6816 16.6731 28.8485 16.604C29.0154 16.5348 29.1943 16.4992 29.375 16.4992C29.5557 16.4992 29.7346 16.5348 29.9015 16.604C30.0684 16.6731 30.2201 16.7744 30.3478 16.9022C30.4756 17.0299 30.5769 17.1816 30.646 17.3485C30.7152 17.5154 30.7508 17.6943 30.7508 17.875C30.7508 18.0557 30.7152 18.2346 30.646 18.4015C30.5769 18.5684 30.4756 18.7201 30.3478 18.8478Z" fill="#00C308"/>
</svg>
