<svg width="20" height="20" viewBox="0 0 20 20" fill="none" xmlns="http://www.w3.org/2000/svg">
<path d="M9.95688 7.08268C9.61358 7.07819 9.33637 6.80098 9.33188 6.45768V2.29102C9.33188 1.94584 9.6117 1.66602 9.95688 1.66602C10.3021 1.66602 10.5819 1.94584 10.5819 2.29102V6.45768C10.5774 6.80098 10.3002 7.07819 9.95688 7.08268Z" fill="#3F3F3F"/>
<path d="M9.95688 18.7493C9.61358 18.7449 9.33637 18.4677 9.33188 18.1243V13.9577C9.33188 13.6125 9.6117 13.3327 9.95688 13.3327C10.3021 13.3327 10.5819 13.6125 10.5819 13.9577V18.1243C10.5774 18.4677 10.3002 18.7449 9.95688 18.7493Z" fill="#3F3F3F"/>
<path d="M7.80688 7.75768C7.60128 7.75919 7.40809 7.65948 7.29021 7.49102L4.90688 4.08268C4.81001 3.947 4.77136 3.77824 4.79953 3.61392C4.8277 3.44961 4.92035 3.30335 5.05688 3.20768C5.3342 3.03918 5.69401 3.10754 5.89021 3.36602L8.29021 6.77435C8.43007 6.96336 8.45027 7.21546 8.34229 7.42433C8.23432 7.6332 8.01696 7.76249 7.78188 7.75768H7.80688Z" fill="#3F3F3F"/>
<path d="M14.4985 17.316C14.2929 17.3175 14.0998 17.2178 13.9819 17.0493L11.6235 13.641C11.4256 13.358 11.4947 12.9681 11.7777 12.7702C12.0608 12.5723 12.4506 12.6413 12.6485 12.9243L15.0319 16.3327C15.1717 16.5217 15.1919 16.7738 15.084 16.9827C14.976 17.1915 14.7586 17.3208 14.5235 17.316H14.4985Z" fill="#3F3F3F"/>
<path d="M6.43188 9.54935C6.36012 9.56087 6.28698 9.56087 6.21521 9.54935L2.30688 8.09102C2.1444 8.03316 2.01255 7.91155 1.94177 7.75427C1.871 7.59699 1.86742 7.41765 1.93188 7.25768C1.98733 7.09361 2.10921 6.96042 2.26773 6.89068C2.42625 6.82093 2.60679 6.82105 2.76521 6.89102L6.62355 8.34102C6.90335 8.44858 7.06738 8.73965 7.01447 9.0347C6.96157 9.32976 6.70662 9.54571 6.40688 9.54935H6.43188Z" fill="#3F3F3F"/>
<path d="M17.3985 13.541C17.3245 13.5393 17.2513 13.5252 17.1819 13.4994L13.2902 12.0743C13.1262 12.0185 12.9927 11.8971 12.9216 11.7392C12.8506 11.5812 12.8482 11.4008 12.9152 11.241C12.9731 11.0785 13.0947 10.9467 13.252 10.8759C13.4092 10.8051 13.5886 10.8016 13.7485 10.866L17.6569 12.291C17.8194 12.3489 17.9512 12.4705 18.022 12.6278C18.0928 12.785 18.0963 12.9644 18.0319 13.1243C17.9387 13.39 17.6794 13.5606 17.3985 13.541Z" fill="#3F3F3F"/>
<path d="M2.30688 12.8827C1.98653 12.8908 1.71196 12.6553 1.67115 12.3375C1.63035 12.0196 1.83654 11.7224 2.14855 11.6493L6.17355 10.5743C6.33379 10.5311 6.50466 10.5533 6.64848 10.6362C6.79231 10.719 6.89727 10.8557 6.94021 11.016C7.0255 11.3491 6.82946 11.6894 6.49855 11.7827L2.45688 12.8577C2.40821 12.8726 2.35777 12.881 2.30688 12.8827Z" fill="#3F3F3F"/>
<path d="M13.5819 9.86602C13.2973 9.86481 13.0484 9.67392 12.9735 9.39935C12.9303 9.23911 12.9525 9.06823 13.0354 8.92441C13.1182 8.78059 13.2549 8.67563 13.4152 8.63268L17.4569 7.55768C17.7905 7.46794 18.1338 7.66568 18.2235 7.99935C18.3133 8.33302 18.1155 8.67627 17.7819 8.76602L13.7569 9.84102C13.7004 9.85918 13.6412 9.86763 13.5819 9.86602Z" fill="#3F3F3F"/>
<path d="M4.86521 16.8743C4.62368 16.8723 4.40492 16.7313 4.30336 16.5122C4.2018 16.293 4.23562 16.0349 4.39021 15.8494L7.06521 12.7077C7.29229 12.4506 7.68138 12.4176 7.94855 12.6327C8.07606 12.7396 8.15568 12.8929 8.16976 13.0588C8.18384 13.2246 8.13121 13.3891 8.02355 13.516L5.34855 16.6743C5.22509 16.8094 5.04802 16.8827 4.86521 16.8743Z" fill="#3F3F3F"/>
<path d="M12.3652 7.95768C12.2191 7.96076 12.0768 7.91038 11.9652 7.81602C11.8377 7.70911 11.7581 7.55576 11.744 7.38995C11.7299 7.22414 11.7825 7.05956 11.8902 6.93268L14.5652 3.74102C14.6721 3.6135 14.8255 3.53388 14.9913 3.5198C15.1571 3.50572 15.3217 3.55835 15.4485 3.66602C15.687 3.88175 15.7196 4.2445 15.5235 4.49935L12.8485 7.70768C12.7325 7.85859 12.5554 7.95017 12.3652 7.95768Z" fill="#3F3F3F"/>
<path d="M9.95688 7.08268C9.61358 7.07819 9.33637 6.80098 9.33188 6.45768V2.29102C9.33188 1.94584 9.6117 1.66602 9.95688 1.66602C10.3021 1.66602 10.5819 1.94584 10.5819 2.29102V6.45768C10.5774 6.80098 10.3002 7.07819 9.95688 7.08268Z" fill="#6100FF"/>
<path d="M9.95688 18.7493C9.61358 18.7449 9.33637 18.4677 9.33188 18.1243V13.9577C9.33188 13.6125 9.6117 13.3327 9.95688 13.3327C10.3021 13.3327 10.5819 13.6125 10.5819 13.9577V18.1243C10.5774 18.4677 10.3002 18.7449 9.95688 18.7493Z" fill="#C099FF"/>
<path d="M7.80688 7.75768C7.60128 7.75919 7.40809 7.65948 7.29021 7.49102L4.90688 4.08268C4.81001 3.947 4.77136 3.77824 4.79953 3.61392C4.8277 3.44961 4.92035 3.30335 5.05688 3.20768C5.3342 3.03918 5.69401 3.10754 5.89021 3.36602L8.29021 6.77435C8.43007 6.96336 8.45027 7.21546 8.34229 7.42433C8.23432 7.6332 8.01696 7.76249 7.78188 7.75768H7.80688Z" fill="#8235FF"/>
<path d="M14.4985 17.316C14.2929 17.3175 14.0998 17.2178 13.9819 17.0493L11.6235 13.641C11.4256 13.358 11.4947 12.9681 11.7777 12.7702C12.0608 12.5723 12.4506 12.6413 12.6485 12.9243L15.0319 16.3327C15.1717 16.5217 15.1919 16.7738 15.084 16.9827C14.976 17.1915 14.7586 17.3208 14.5235 17.316H14.4985Z" fill="#C8A7FF"/>
<path d="M6.43188 9.54935C6.36012 9.56087 6.28698 9.56087 6.21521 9.54935L2.30688 8.09102C2.1444 8.03316 2.01255 7.91155 1.94177 7.75427C1.871 7.59699 1.86742 7.41765 1.93188 7.25768C1.98733 7.09361 2.10921 6.96042 2.26773 6.89068C2.42625 6.82093 2.60679 6.82105 2.76521 6.89102L6.62355 8.34102C6.90335 8.44858 7.06738 8.73965 7.01447 9.0347C6.96157 9.32976 6.70662 9.54571 6.40688 9.54935H6.43188Z" fill="#9757FF"/>
<path d="M17.3985 13.541C17.3245 13.5393 17.2513 13.5252 17.1819 13.4994L13.2902 12.0743C13.1262 12.0185 12.9927 11.8971 12.9216 11.7392C12.8506 11.5812 12.8482 11.4008 12.9152 11.241C12.9731 11.0785 13.0947 10.9467 13.252 10.8759C13.4092 10.8051 13.5886 10.8016 13.7485 10.866L17.6569 12.291C17.8194 12.3489 17.9512 12.4705 18.022 12.6278C18.0928 12.785 18.0963 12.9644 18.0319 13.1243C17.9387 13.39 17.6794 13.5606 17.3985 13.541Z" fill="#D5BBFF"/>
<path d="M2.30688 12.8827C1.98653 12.8908 1.71196 12.6553 1.67115 12.3375C1.63035 12.0196 1.83654 11.7224 2.14855 11.6493L6.17355 10.5743C6.33379 10.5311 6.50466 10.5533 6.64848 10.6362C6.79231 10.719 6.89727 10.8557 6.94021 11.016C7.0255 11.3491 6.82946 11.6894 6.49855 11.7827L2.45688 12.8577C2.40821 12.8726 2.35777 12.881 2.30688 12.8827Z" fill="#A167FF"/>
<path d="M13.5819 9.86602C13.2973 9.86481 13.0484 9.67392 12.9735 9.39935C12.9303 9.23911 12.9525 9.06823 13.0354 8.92441C13.1182 8.78059 13.2549 8.67563 13.4152 8.63268L17.4569 7.55768C17.7905 7.46794 18.1338 7.66568 18.2235 7.99935C18.3133 8.33302 18.1155 8.67627 17.7819 8.76602L13.7569 9.84102C13.7004 9.85918 13.6412 9.86763 13.5819 9.86602Z" fill="#E2D0FF"/>
<path d="M4.86521 16.8743C4.62368 16.8723 4.40492 16.7313 4.30336 16.5122C4.2018 16.293 4.23562 16.0349 4.39021 15.8494L7.06521 12.7077C7.29229 12.4506 7.68138 12.4176 7.94855 12.6327C8.07606 12.7396 8.15568 12.8929 8.16976 13.0588C8.18384 13.2246 8.13121 13.3891 8.02355 13.516L5.34855 16.6743C5.22509 16.8094 5.04802 16.8827 4.86521 16.8743Z" fill="#B07FFF"/>
<path d="M12.3652 7.95768C12.2191 7.96076 12.0768 7.91038 11.9652 7.81602C11.8377 7.70911 11.7581 7.55576 11.744 7.38995C11.7299 7.22414 11.7825 7.05956 11.8902 6.93268L14.5652 3.74102C14.6721 3.6135 14.8255 3.53388 14.9913 3.5198C15.1571 3.50572 15.3217 3.55835 15.4485 3.66602C15.687 3.88175 15.7196 4.2445 15.5235 4.49935L12.8485 7.70768C12.7325 7.85859 12.5554 7.95017 12.3652 7.95768Z" fill="#EADDFF"/>
</svg>
