<svg width="48" height="49" viewBox="0 0 48 49" fill="none" xmlns="http://www.w3.org/2000/svg">
<path d="M4.5 15.5V12.5C4.5 11.7044 4.81607 10.9413 5.37868 10.3787C5.94129 9.81607 6.70435 9.5 7.5 9.5H17.4994C18.1482 9.50161 18.7793 9.71198 19.2994 10.1L24.9 14.3C25.0576 14.4182 25.1903 14.5663 25.2907 14.7358C25.3911 14.9053 25.4571 15.0929 25.4849 15.2879C25.5128 15.4829 25.502 15.6815 25.4531 15.8723C25.4042 16.0631 25.3182 16.2424 25.2 16.4C25.0818 16.5576 24.9337 16.6904 24.7642 16.7907C24.5947 16.8911 24.4071 16.9571 24.2121 16.9849C24.0171 17.0128 23.8185 17.002 23.6277 16.9531C23.4369 16.9042 23.2576 16.8182 23.1 16.7L17.4994 12.5H7.5V15.5C7.5 15.8978 7.34196 16.2794 7.06066 16.5607C6.77936 16.842 6.39782 17 6 17C5.60218 17 5.22064 16.842 4.93934 16.5607C4.65804 16.2794 4.5 15.8978 4.5 15.5ZM16.5 38H7.5V36.5C7.5 36.1022 7.34196 35.7206 7.06066 35.4393C6.77936 35.158 6.39782 35 6 35C5.60218 35 5.22064 35.158 4.93934 35.4393C4.65804 35.7206 4.5 36.1022 4.5 36.5V38.1162C4.50099 38.8808 4.80513 39.6137 5.34573 40.1543C5.88632 40.6949 6.61924 40.999 7.38375 41H16.5C16.8978 41 17.2794 40.842 17.5607 40.5607C17.842 40.2794 18 39.8978 18 39.5C18 39.1022 17.842 38.7206 17.5607 38.4393C17.2794 38.158 16.8978 38 16.5 38ZM30 38H24C23.6022 38 23.2206 38.158 22.9393 38.4393C22.658 38.7206 22.5 39.1022 22.5 39.5C22.5 39.8978 22.658 40.2794 22.9393 40.5607C23.2206 40.842 23.6022 41 24 41H30C30.3978 41 30.7794 40.842 31.0607 40.5607C31.342 40.2794 31.5 39.8978 31.5 39.5C31.5 39.1022 31.342 38.7206 31.0607 38.4393C30.7794 38.158 30.3978 38 30 38ZM42 27.5C41.6022 27.5 41.2206 27.658 40.9393 27.9393C40.658 28.2206 40.5 28.6022 40.5 29V38H37.5C37.1022 38 36.7206 38.158 36.4393 38.4393C36.158 38.7206 36 39.1022 36 39.5C36 39.8978 36.158 40.2794 36.4393 40.5607C36.7206 40.842 37.1022 41 37.5 41H40.6669C41.418 40.999 42.138 40.7002 42.6691 40.1691C43.2002 39.638 43.499 38.918 43.5 38.1669V29C43.5 28.6022 43.342 28.2206 43.0607 27.9393C42.7794 27.658 42.3978 27.5 42 27.5ZM40.5 14H31.5C31.1022 14 30.7206 14.158 30.4393 14.4393C30.158 14.7206 30 15.1022 30 15.5C30 15.8978 30.158 16.2794 30.4393 16.5607C30.7206 16.842 31.1022 17 31.5 17H40.5V21.5C40.5 21.8978 40.658 22.2794 40.9393 22.5607C41.2206 22.842 41.6022 23 42 23C42.3978 23 42.7794 22.842 43.0607 22.5607C43.342 22.2794 43.5 21.8978 43.5 21.5V17C43.5 16.2044 43.1839 15.4413 42.6213 14.8787C42.0587 14.3161 41.2957 14 40.5 14ZM6 30.5C6.39782 30.5 6.77936 30.342 7.06066 30.0607C7.34196 29.7794 7.5 29.3978 7.5 29V23C7.5 22.6022 7.34196 22.2206 7.06066 21.9393C6.77936 21.658 6.39782 21.5 6 21.5C5.60218 21.5 5.22064 21.658 4.93934 21.9393C4.65804 22.2206 4.5 22.6022 4.5 23V29C4.5 29.3978 4.65804 29.7794 4.93934 30.0607C5.22064 30.342 5.60218 30.5 6 30.5Z" fill="#343330"/>
</svg>
