<svg width="48" height="49" viewBox="0 0 48 49" fill="none" xmlns="http://www.w3.org/2000/svg">
<path d="M28.4985 21.5004C28.4985 21.8983 28.3404 22.2798 28.0591 22.5611C27.7778 22.8424 27.3963 23.0004 26.9985 23.0004H22.4985V27.5004C22.4985 27.8983 22.3404 28.2798 22.0591 28.5611C21.7778 28.8424 21.3963 29.0004 20.9985 29.0004C20.6006 29.0004 20.2191 28.8424 19.9378 28.5611C19.6565 28.2798 19.4985 27.8983 19.4985 27.5004V23.0004H14.9985C14.6006 23.0004 14.2191 22.8424 13.9378 22.5611C13.6565 22.2798 13.4985 21.8983 13.4985 21.5004C13.4985 21.1026 13.6565 20.7211 13.9378 20.4398C14.2191 20.1585 14.6006 20.0004 14.9985 20.0004H19.4985V15.5004C19.4985 15.1026 19.6565 14.7211 19.9378 14.4398C20.2191 14.1585 20.6006 14.0004 20.9985 14.0004C21.3963 14.0004 21.7778 14.1585 22.0591 14.4398C22.3404 14.7211 22.4985 15.1026 22.4985 15.5004V20.0004H26.9985C27.3963 20.0004 27.7778 20.1585 28.0591 20.4398C28.3404 20.7211 28.4985 21.1026 28.4985 21.5004ZM43.0597 43.5617C42.9204 43.7011 42.755 43.8118 42.5729 43.8873C42.3908 43.9628 42.1956 44.0016 41.9985 44.0016C41.8013 44.0016 41.6062 43.9628 41.4241 43.8873C41.242 43.8118 41.0765 43.7011 40.9372 43.5617L31.551 34.1736C28.2842 36.8946 24.0941 38.2515 19.8524 37.9619C15.6106 37.6723 11.6438 35.7585 8.77717 32.6187C5.91051 29.4789 4.3647 25.3548 4.4613 21.1042C4.5579 16.8537 6.28948 12.8041 9.29581 9.79777C12.3022 6.79143 16.3518 5.05985 20.6023 4.96325C24.8528 4.86665 28.9769 6.41247 32.1167 9.27912C35.2566 12.1458 37.1703 16.1126 37.4599 20.3543C37.7495 24.596 36.3927 28.7861 33.6716 32.0529L43.0597 41.4392C43.1992 41.5785 43.3098 41.7439 43.3853 41.926C43.4608 42.1081 43.4997 42.3033 43.4997 42.5004C43.4997 42.6975 43.4608 42.8927 43.3853 43.0748C43.3098 43.2569 43.1992 43.4224 43.0597 43.5617ZM20.9985 35.0004C23.6685 35.0004 26.2786 34.2087 28.4987 32.7253C30.7187 31.2419 32.4491 29.1335 33.4708 26.6667C34.4926 24.1999 34.76 21.4855 34.2391 18.8667C33.7182 16.248 32.4324 13.8425 30.5444 11.9545C28.6564 10.0665 26.2509 8.78073 23.6322 8.25983C21.0134 7.73893 18.299 8.00627 15.8322 9.02805C13.3654 10.0498 11.257 11.7802 9.77363 14.0002C8.29024 16.2203 7.49847 18.8304 7.49847 21.5004C7.50244 25.0796 8.92604 28.5111 11.4569 31.042C13.9878 33.5729 17.4193 34.9965 20.9985 35.0004Z" fill="#6100FF"/>
</svg>
