<svg width="24" height="25" viewBox="0 0 24 25" fill="none" xmlns="http://www.w3.org/2000/svg">
<path fill-rule="evenodd" clip-rule="evenodd" d="M19.53 9.94016L12.53 2.94016C12.3827 2.81389 12.194 2.74625 12 2.75016H9C6.37665 2.75016 4.25 4.87681 4.25 7.50016V17.5002C4.25 20.1235 6.37665 22.2502 9 22.2502H15C17.6234 22.2502 19.75 20.1235 19.75 17.5002V10.5002C19.7534 10.2918 19.6743 10.0905 19.53 9.94016ZM12.75 5.29016L17.21 9.75016H14C13.3096 9.75016 12.75 9.19052 12.75 8.50016V5.29016ZM5.75 17.5002C5.75549 19.2928 7.20735 20.7447 9 20.7502H15C16.7926 20.7447 18.2445 19.2928 18.25 17.5002V11.2502H14C12.4812 11.2502 11.25 10.0189 11.25 8.50016V4.25016H9C7.20735 4.25565 5.75549 5.70751 5.75 7.50016V17.5002Z" fill="#848484"/>
</svg>
