<svg width="1920" height="1134" viewBox="0 0 1920 1134" fill="none" xmlns="http://www.w3.org/2000/svg">
<path d="M1919.5 567C1919.5 723.324 1812.22 864.939 1638.57 967.499C1464.93 1070.05 1225.02 1133.5 960 1133.5C694.977 1133.5 455.068 1070.05 281.432 967.499C107.784 864.939 0.5 723.324 0.5 567C0.5 410.676 107.784 269.062 281.432 166.501C455.068 63.9471 694.977 0.5 960 0.5C1225.02 0.5 1464.93 63.9471 1638.57 166.501C1812.22 269.062 1919.5 410.676 1919.5 567Z" stroke="#F2EBFF"/>
<path d="M1880.42 567C1880.42 716.95 1777.51 852.793 1610.93 951.177C1444.37 1049.55 1214.23 1110.42 960 1110.42C705.77 1110.42 475.632 1049.55 309.068 951.177C142.494 852.793 39.584 716.95 39.584 567C39.584 417.051 142.494 281.207 309.068 182.824C475.632 84.4477 705.77 23.5845 960 23.5845C1214.23 23.5845 1444.37 84.4477 1610.93 182.824C1777.51 281.207 1880.42 417.051 1880.42 567Z" stroke="#F2EBFF"/>
<path d="M1841.64 567C1841.64 710.625 1743.07 840.742 1583.51 934.98C1423.96 1029.21 1203.52 1087.51 960 1087.51C716.479 1087.51 496.036 1029.21 336.491 934.98C176.934 840.742 78.3652 710.625 78.3652 567C78.3652 423.375 176.934 293.258 336.491 199.02C496.036 104.789 716.479 46.489 960 46.489C1203.52 46.489 1423.96 104.789 1583.51 199.02C1743.07 293.258 1841.64 423.375 1841.64 567Z" stroke="#F2EBFF"/>
<path d="M1800.59 567.001C1800.59 703.93 1706.61 827.986 1554.48 917.836C1402.37 1007.68 1192.19 1063.27 960.001 1063.27C727.815 1063.27 517.635 1007.68 365.518 917.836C213.39 827.986 119.416 703.93 119.416 567.001C119.416 430.071 213.39 306.015 365.518 216.165C517.635 126.321 727.815 70.7349 960.001 70.7349C1192.19 70.7349 1402.37 126.321 1554.48 216.165C1706.61 306.015 1800.59 430.071 1800.59 567.001Z" stroke="#F2EBFF"/>
<path d="M1759.63 567C1759.63 697.251 1670.24 815.26 1525.53 900.733C1380.82 986.201 1180.88 1039.08 960 1039.08C739.123 1039.08 539.18 986.201 394.474 900.733C249.757 815.26 160.366 697.251 160.366 567C160.366 436.75 249.757 318.741 394.474 233.267C539.18 147.8 739.123 94.9211 960 94.9211C1180.88 94.9211 1380.82 147.8 1525.53 233.267C1670.24 318.741 1759.63 436.75 1759.63 567Z" stroke="#F2EBFF"/>
<path d="M1718.68 567C1718.68 690.572 1633.88 802.534 1496.57 883.631C1359.27 964.721 1169.57 1014.89 960.001 1014.89C750.432 1014.89 560.727 964.721 423.431 883.631C286.124 802.534 201.317 690.572 201.317 567C201.317 443.429 286.124 331.466 423.431 250.369C560.727 169.279 750.432 119.108 960.001 119.108C1169.57 119.108 1359.27 169.279 1496.57 250.369C1633.88 331.466 1718.68 443.429 1718.68 567Z" stroke="#F2EBFF"/>
<path d="M1677.73 567.001C1677.73 683.893 1597.51 789.809 1467.61 866.529C1337.73 943.242 1158.26 990.707 960 990.707C761.739 990.707 582.272 943.242 452.387 866.529C322.491 789.809 242.268 683.893 242.268 567.001C242.268 450.108 322.491 344.192 452.387 267.472C582.272 190.759 761.739 143.294 960 143.294C1158.26 143.294 1337.73 190.759 1467.61 267.472C1597.51 344.192 1677.73 450.108 1677.73 567.001Z" stroke="#F2EBFF"/>
<path d="M1636.78 567C1636.78 677.214 1561.14 777.083 1438.66 849.426C1316.18 921.763 1146.95 966.52 960 966.52C773.048 966.52 603.818 921.763 481.344 849.426C358.859 777.083 283.219 677.214 283.219 567C283.219 456.787 358.859 356.917 481.344 284.574C603.818 212.238 773.048 167.481 960 167.481C1146.95 167.481 1316.18 212.238 1438.66 284.574C1561.14 356.917 1636.78 456.787 1636.78 567Z" stroke="#F2EBFF"/>
<path d="M1595.83 567C1595.83 670.535 1524.78 764.358 1409.7 832.324C1294.64 900.283 1135.65 942.333 960.001 942.333C784.357 942.333 625.365 900.283 510.301 832.324C395.226 764.358 324.17 670.535 324.17 567C324.17 463.466 395.226 369.643 510.301 301.677C625.365 233.717 784.357 191.667 960.001 191.667C1135.65 191.667 1294.64 233.717 1409.7 301.677C1524.78 369.643 1595.83 463.466 1595.83 567Z" stroke="#F2EBFF"/>
<path d="M1554.88 567C1554.88 663.856 1488.41 751.632 1380.74 815.221C1273.09 878.804 1124.34 918.147 960 918.147C795.664 918.147 646.91 878.804 539.257 815.221C431.593 751.632 365.12 663.856 365.12 567C365.12 470.144 431.593 382.369 539.257 318.779C646.91 255.197 795.664 215.854 960 215.854C1124.34 215.854 1273.09 255.197 1380.74 318.779C1488.41 382.369 1554.88 470.144 1554.88 567Z" stroke="#F2EBFF"/>
<path d="M1517.08 567C1517.08 657.691 1454.84 739.885 1354.01 799.435C1253.2 858.977 1113.9 895.821 959.999 895.821C806.102 895.821 666.798 858.977 565.985 799.435C465.162 739.885 402.92 657.691 402.92 567C402.92 476.31 465.162 394.115 565.985 334.566C666.798 275.024 806.102 238.18 959.999 238.18C1113.9 238.18 1253.2 275.024 1354.01 334.566C1454.84 394.115 1517.08 476.31 1517.08 567Z" stroke="#F2EBFF"/>
<path d="M1472.98 567C1472.98 650.499 1415.67 726.181 1322.83 781.017C1230 835.845 1101.72 869.774 960 869.774C818.281 869.774 690.002 835.845 597.17 781.017C504.327 726.181 447.021 650.499 447.021 567C447.021 483.502 504.327 407.82 597.17 352.984C690.002 298.155 818.281 264.227 960 264.227C1101.72 264.227 1230 298.155 1322.83 352.984C1415.67 407.82 1472.98 483.502 1472.98 567Z" stroke="#F2EBFF"/>
<path d="M1432.03 567.001C1432.03 643.82 1379.31 713.456 1293.87 763.914C1208.45 814.366 1090.41 845.588 960 845.588C829.589 845.588 711.547 814.366 626.126 763.914C540.694 713.456 487.972 643.82 487.972 567.001C487.972 490.181 540.694 420.545 626.126 370.087C711.547 319.635 829.589 288.414 960 288.414C1090.41 288.414 1208.45 319.635 1293.87 370.087C1379.31 420.545 1432.03 490.181 1432.03 567.001Z" stroke="#F2EBFF"/>
<path d="M1391.08 567.001C1391.08 637.141 1342.94 700.73 1264.92 746.812C1186.91 792.887 1079.1 821.401 960 821.401C840.897 821.401 733.094 792.887 655.083 746.812C577.061 700.73 528.923 637.141 528.923 567.001C528.923 496.86 577.061 433.271 655.083 387.189C733.094 341.114 840.897 312.6 960 312.6C1079.1 312.6 1186.91 341.114 1264.92 387.189C1342.94 433.271 1391.08 496.86 1391.08 567.001Z" stroke="#F2EBFF"/>
<path d="M1346.98 567C1346.98 629.948 1303.77 687.026 1233.73 728.394C1163.7 769.755 1066.93 795.354 960 795.354C853.075 795.354 756.297 769.755 686.267 728.394C616.226 687.026 573.023 629.948 573.023 567C573.023 504.053 616.226 446.975 686.267 405.607C756.297 364.246 853.075 338.647 960 338.647C1066.93 338.647 1163.7 364.246 1233.73 405.607C1303.77 446.975 1346.98 504.053 1346.98 567Z" stroke="#F2EBFF"/>
<path d="M1306.03 567.001C1306.03 623.269 1267.41 674.3 1204.78 711.291C1142.16 748.276 1055.62 771.168 960.001 771.168C864.384 771.168 777.843 748.276 715.224 711.291C652.593 674.3 613.975 623.269 613.975 567.001C613.975 510.732 652.593 459.701 715.224 422.71C777.843 385.725 864.384 362.833 960.001 362.833C1055.62 362.833 1142.16 385.725 1204.78 422.71C1267.41 459.701 1306.03 510.732 1306.03 567.001Z" stroke="#F2EBFF"/>
<path d="M1265.17 567.001C1265.17 616.607 1231.13 661.606 1175.89 694.231C1120.66 726.849 1044.34 747.04 960 747.04C875.664 747.04 799.336 726.849 744.109 694.231C688.872 661.606 654.825 616.607 654.825 567.001C654.825 517.395 688.872 472.396 744.109 439.771C799.336 407.153 875.664 386.962 960 386.962C1044.34 386.962 1120.66 407.153 1175.89 439.771C1231.13 472.396 1265.17 517.395 1265.17 567.001Z" stroke="#F2EBFF"/>
<path d="M1224.12 567.001C1224.12 609.912 1194.67 648.849 1146.86 677.087C1099.07 705.318 1033 722.795 960 722.795C886.999 722.795 820.934 705.318 773.136 677.087C725.327 648.849 695.875 609.912 695.875 567.001C695.875 524.09 725.327 485.152 773.136 456.915C820.934 428.684 886.999 411.207 960 411.207C1033 411.207 1099.07 428.684 1146.86 456.915C1194.67 485.152 1224.12 524.09 1224.12 567.001Z" stroke="#F2EBFF"/>
<path d="M1183.27 567.001C1183.27 603.249 1158.39 636.155 1117.98 660.026C1077.57 683.89 1021.72 698.667 960.001 698.667C898.281 698.667 842.429 683.89 802.023 660.026C761.607 636.155 736.728 603.249 736.728 567.001C736.728 530.753 761.607 497.847 802.023 473.976C842.429 450.111 898.281 435.335 960.001 435.335C1021.72 435.335 1077.57 450.111 1117.98 473.976C1158.39 497.847 1183.27 530.753 1183.27 567.001Z" stroke="#F2EBFF"/>
<path d="M1142.22 567.001C1142.22 596.554 1121.94 623.398 1088.95 642.882C1055.97 662.359 1010.38 674.422 960 674.422C909.616 674.422 864.026 662.359 831.049 642.882C798.061 623.398 777.776 596.554 777.776 567.001C777.776 537.448 798.061 510.603 831.049 491.119C864.026 471.642 909.616 459.58 960 459.58C1010.38 459.58 1055.97 471.642 1088.95 491.119C1121.94 510.603 1142.22 537.448 1142.22 567.001Z" stroke="#F2EBFF"/>
<path d="M1107.57 567.001C1107.57 590.902 1091.17 612.63 1064.45 628.41C1037.74 644.184 1000.82 653.956 960 653.956C919.184 653.956 882.257 644.184 855.551 628.41C828.833 612.63 812.427 590.902 812.427 567.001C812.427 543.099 828.833 521.371 855.551 505.591C882.257 489.817 919.184 480.045 960 480.045C1000.82 480.045 1037.74 489.817 1064.45 505.591C1091.17 521.371 1107.57 543.099 1107.57 567.001Z" stroke="#F2EBFF"/>
<path d="M1066.62 567.001C1066.62 584.223 1054.8 599.905 1035.49 611.308C1016.2 622.705 989.507 629.77 959.999 629.77C930.492 629.77 903.802 622.705 884.507 611.308C865.2 599.905 853.377 584.223 853.377 567.001C853.377 549.778 865.2 534.096 884.507 522.693C903.802 511.296 930.492 504.231 959.999 504.231C989.507 504.231 1016.2 511.296 1035.49 522.693C1054.8 534.096 1066.62 549.778 1066.62 567.001Z" stroke="#F2EBFF"/>
<path d="M1031.97 567.001C1031.97 578.572 1024.03 589.137 1010.99 596.837C997.965 604.53 979.938 609.304 959.999 609.304C940.06 609.304 922.033 604.53 909.008 596.837C895.972 589.137 888.027 578.572 888.027 567.001C888.027 555.429 895.972 544.864 909.008 537.164C922.033 529.471 940.06 524.697 959.999 524.697C979.938 524.697 997.965 529.471 1010.99 537.164C1024.03 544.864 1031.97 555.429 1031.97 567.001Z" stroke="#F2EBFF"/>
<path d="M1000.62 567C1000.62 573.412 996.187 579.308 988.823 583.628C981.471 587.941 971.281 590.625 959.999 590.625C948.717 590.625 938.528 587.941 931.176 583.628C923.812 579.308 919.379 573.412 919.379 567C919.379 560.589 923.812 554.693 931.176 550.373C938.528 546.059 948.717 543.375 959.999 543.375C971.281 543.375 981.471 546.059 988.823 550.373C996.187 554.693 1000.62 560.589 1000.62 567Z" stroke="#F2EBFF"/>
</svg>
