<svg width="87" height="40" viewBox="0 0 87 40" fill="none" xmlns="http://www.w3.org/2000/svg">
<g clip-path="url(#clip0_11_41)">
<path d="M77.8414 27.0796H70.9434V28.1872H77.8414V27.0796Z" fill="#99D5F2"/>
<path d="M77.8414 33.4822H70.9434V34.5898H77.8414V33.4822Z" fill="#99D5F2"/>
<path d="M77.8414 21.7861H70.9434V27.0796H77.8414V21.7861Z" fill="#47BFEF"/>
<path d="M77.8414 28.1887H70.9434V33.4822H77.8414V28.1887Z" fill="#47BFEF"/>
<path d="M77.8414 34.5728H70.9434V39.8662H77.8414V34.5728Z" fill="#47BFEF"/>
<path d="M87.0001 34.5728H77.8416V39.8662H87.0001V34.5728Z" fill="#99D5F2"/>
<path d="M87.0001 28.1887H77.8416V33.4822H87.0001V28.1887Z" fill="#99D5F2"/>
<path d="M17.8874 33.8621V21.7861H6.05553C2.72236 21.7861 0.0168457 24.4828 0.0168457 27.8241H11.8487C15.1818 27.8241 17.8889 30.5208 17.8889 33.8621H17.8874Z" fill="#99D5F2"/>
<path d="M17.8889 33.8621H6.00646C2.70705 33.8621 0.0168807 31.1653 0 27.8579V39.9001H11.8809C15.1972 39.9001 17.8874 37.2033 17.8874 33.879V33.8621H17.8889Z" fill="#99D5F2"/>
<path d="M27.2777 0.247803H20.3796V5.55816H27.2777V0.247803Z" fill="#47BFEF"/>
<path d="M27.2777 12.8037H20.3796V18.3617H27.2777V12.8037Z" fill="#99D5F2"/>
<path d="M17.8889 0.247803H6.05556C2.72239 0.247803 0.0168807 2.94452 0 6.2858H11.8318C15.165 6.2858 17.872 8.98252 17.872 12.3238V0.247803H17.8889Z" fill="#99D5F2"/>
<path d="M0 6.30273V18.3618H11.8809C15.1972 18.3618 17.8874 15.6651 17.8874 12.3407V12.3238H6.00646C2.69017 12.3238 0 9.62709 0 6.30273Z" fill="#99D5F2"/>
<path d="M6.00646 12.3236H17.8874C17.8874 8.98236 15.165 6.28564 11.8472 6.28564H0V6.30257C0 9.62693 2.69017 12.3236 6.00646 12.3236Z" fill="#47BFEF"/>
<path d="M27.2777 5.55811H20.3796V7.57641H27.2777V5.55811Z" fill="#99D5F2"/>
<path d="M38.2533 0.247803H27.2793V5.55816H38.2533V0.247803Z" fill="#99D5F2"/>
<path d="M27.3114 7.57642H20.4133V12.8037H27.3114V7.57642Z" fill="#47BFEF"/>
<path d="M34.1774 7.57642H27.2793V12.8037H34.1774V7.57642Z" fill="#99D5F2"/>
<path d="M55.5974 15.682C57.2302 17.2542 59.4431 18.2295 61.8847 18.2295C64.5089 18.2295 66.8676 17.105 68.5188 15.3343L62.2315 9.03174L55.5974 15.682Z" fill="#99D5F2"/>
<path d="M61.8831 0.0168483C59.4906 0.0168483 57.3115 0.959853 55.6956 2.46589L62.2299 9.01616L68.4343 2.79663C66.7846 1.07677 64.4582 0.00146484 61.9 0.00146484L61.8831 0.0183866V0.0168483Z" fill="#99D5F2"/>
<path d="M55.6955 2.48145C53.9123 4.13516 52.8074 6.50114 52.8074 9.1317C52.8074 11.7623 53.8801 14.0283 55.5958 15.682L62.2299 9.03171L55.6955 2.48145Z" fill="#47BFEF"/>
<path d="M34.8035 18.3618H43.7978V0.247803L34.8035 18.3618Z" fill="#99D5F2"/>
<path d="M43.7976 18.3618H52.7919L43.7976 0.247803V18.3618Z" fill="#47BFEF"/>
<path d="M11.8318 27.8241H0C0 31.1484 2.69017 33.8451 6.00646 33.8451H17.8874C17.8874 30.5038 15.165 27.8071 11.8472 27.8071L11.8303 27.8241H11.8318Z" fill="#47BFEF"/>
<path d="M87.0001 21.7861H77.8416V27.0796H87.0001V21.7861Z" fill="#99D5F2"/>
<path d="M31.7664 21.7861H20.4456H27.2776V33.8621H31.7986C34.9676 33.8621 37.5411 31.1654 37.5411 27.8411C37.5411 24.5167 34.9507 21.7861 31.7495 21.7861H31.7664Z" fill="#99D5F2"/>
<path d="M20.4456 21.7861H20.3796V39.9001H27.2777V33.8621H20.4456V21.7861Z" fill="#99D5F2"/>
<path d="M27.2776 21.7861H20.4456V33.8621H27.2776V21.7861Z" fill="#47BFEF"/>
<path d="M55.5974 37.4525C57.2302 39.0247 59.4431 40 61.8847 40C64.5089 40 66.8676 38.8755 68.5188 37.1048L62.2315 30.8022L55.5974 37.4525Z" fill="#99D5F2"/>
<path d="M61.8831 21.7861C59.4906 21.7861 57.3115 22.7291 55.6956 24.2352L62.2299 30.7854L68.4343 24.5659C66.7846 22.8461 64.4582 21.7708 61.9 21.7708L61.8831 21.7877V21.7861Z" fill="#99D5F2"/>
<path d="M55.6955 24.2505C53.9123 25.9042 52.8074 28.2702 52.8074 30.9007C52.8074 33.5313 53.8801 35.7973 55.5958 37.451L62.2299 30.8008L55.6955 24.2505Z" fill="#47BFEF"/>
<path d="M34.8035 39.917H43.7978V21.803L34.8035 39.917Z" fill="#99D5F2"/>
<path d="M43.7976 39.917H52.7919L43.7976 21.803V39.917Z" fill="#47BFEF"/>
</g>
<defs>
<clipPath id="clip0_11_41">
<rect width="87" height="40" fill="white"/>
</clipPath>
</defs>
</svg>
