<svg width="1920" height="324" viewBox="0 0 1920 324" fill="none" xmlns="http://www.w3.org/2000/svg">
<path d="M2794.41 162C2794.41 220.132 2754.35 275.617 2681.64 326.169C2608.95 376.711 2503.73 422.247 2373.67 460.497C2113.55 536.995 1754.17 584.317 1357.19 584.317C960.204 584.317 600.822 536.995 340.702 460.497C210.639 422.247 105.421 376.711 32.73 326.169C-39.9757 275.617 -80.0391 220.132 -80.0391 162C-80.0391 103.868 -39.9757 48.3838 32.73 -2.16852C105.421 -52.7106 210.639 -98.2467 340.702 -136.497C600.822 -212.994 960.204 -260.316 1357.19 -260.316C1754.17 -260.316 2113.55 -212.994 2373.67 -136.497C2503.73 -98.2467 2608.95 -52.7106 2681.64 -2.16852C2754.35 48.3838 2794.41 103.868 2794.41 162Z" stroke="#F2EBFF"/>
<path d="M2735.88 162C2735.88 217.755 2697.45 270.976 2627.71 319.468C2557.98 367.951 2457.05 411.633 2332.28 448.325C2082.76 521.708 1738.01 567.103 1357.19 567.103C976.369 567.103 631.62 521.708 382.093 448.325C257.326 411.633 156.394 367.951 86.6653 319.468C16.9216 270.976 -21.5039 217.755 -21.5039 162C-21.5039 106.245 16.9216 53.0246 86.6653 4.53178C156.394 -43.9508 257.326 -87.6322 382.093 -124.325C631.62 -197.707 976.369 -243.103 1357.19 -243.103C1738.01 -243.103 2082.76 -197.707 2332.28 -124.325C2457.05 -87.6322 2557.98 -43.9508 2627.71 4.53178C2697.45 53.0246 2735.88 106.245 2735.88 162Z" stroke="#F2EBFF"/>
<path d="M2677.8 162.001C2677.8 215.398 2641 266.371 2574.19 312.821C2507.4 359.26 2410.73 401.101 2291.21 436.248C2052.2 506.54 1721.97 550.023 1357.19 550.023C992.405 550.023 662.176 506.54 423.159 436.248C303.648 401.101 206.968 359.26 140.178 312.821C73.3735 266.371 36.5732 215.398 36.5732 162.001C36.5732 108.604 73.3735 57.6303 140.178 11.181C206.968 -35.2581 303.648 -77.0993 423.159 -112.246C662.176 -182.538 992.405 -226.021 1357.19 -226.021C1721.97 -226.021 2052.2 -182.538 2291.21 -112.246C2410.73 -77.0993 2507.4 -35.2581 2574.19 11.181C2641 57.6303 2677.8 108.604 2677.8 162.001Z" stroke="#F2EBFF"/>
<path d="M2616.32 162C2616.32 212.9 2581.24 261.496 2517.55 305.782C2453.87 350.058 2361.69 389.952 2247.74 423.463C2019.85 490.483 1704.99 531.942 1357.19 531.942C1009.38 531.942 694.523 490.483 466.632 423.463C352.683 389.952 260.505 350.058 196.826 305.782C133.132 261.496 98.0522 212.9 98.0522 162C98.0522 111.1 133.132 62.5039 196.826 18.2176C260.505 -26.0585 352.683 -65.9517 466.632 -99.4627C694.523 -166.483 1009.38 -207.942 1357.19 -207.942C1704.99 -207.942 2019.85 -166.483 2247.74 -99.4627C2361.69 -65.9517 2453.87 -26.0585 2517.55 18.2176C2581.24 62.5039 2616.32 111.1 2616.32 162Z" stroke="#F2EBFF"/>
<path d="M2554.99 162C2554.99 210.41 2521.63 256.633 2461.04 298.762C2400.46 340.88 2312.77 378.83 2204.37 410.709C1987.58 474.465 1688.05 513.906 1357.19 513.906C1026.32 513.906 726.79 474.465 509.997 410.709C401.597 378.83 313.911 340.88 253.335 298.762C192.745 256.633 159.381 210.41 159.381 162C159.381 113.59 192.745 67.3665 253.335 25.2381C313.911 -16.8802 401.597 -54.8302 509.997 -86.7092C726.79 -150.465 1026.32 -189.906 1357.19 -189.906C1688.05 -189.906 1987.58 -150.465 2204.37 -86.7092C2312.77 -54.8302 2400.46 -16.8802 2461.04 25.2381C2521.63 67.3665 2554.99 113.59 2554.99 162Z" stroke="#F2EBFF"/>
<path d="M2493.66 162.001C2493.66 207.921 2462.02 251.772 2404.53 291.742C2347.06 331.703 2263.86 367.71 2161.01 397.957C1955.32 458.449 1671.12 495.871 1357.19 495.871C1043.25 495.871 759.06 458.449 553.365 397.957C450.514 367.71 367.318 331.703 309.846 291.742C252.359 251.772 220.711 207.921 220.711 162.001C220.711 116.081 252.359 72.2302 309.846 32.2596C367.318 -7.70087 450.514 -43.7076 553.365 -73.9547C759.06 -134.447 1043.25 -171.869 1357.19 -171.869C1671.12 -171.869 1955.32 -134.447 2161.01 -73.9547C2263.86 -43.7076 2347.06 -7.70087 2404.53 32.2596C2462.02 72.2302 2493.66 116.081 2493.66 162.001Z" stroke="#F2EBFF"/>
<path d="M2432.33 162.001C2432.33 205.431 2402.4 246.909 2348.02 284.722C2293.65 322.525 2214.95 356.588 2117.64 385.203C1923.05 442.432 1654.19 477.835 1357.19 477.835C1060.19 477.835 791.327 442.432 596.731 385.203C499.429 356.588 420.724 322.525 366.355 284.722C311.972 246.909 282.04 205.431 282.04 162.001C282.04 118.571 311.972 77.093 366.355 39.2801C420.724 1.47746 499.429 -32.5861 596.731 -61.2012C791.327 -118.43 1060.19 -153.833 1357.19 -153.833C1654.19 -153.833 1923.05 -118.43 2117.64 -61.2012C2214.95 -32.5861 2293.65 1.47746 2348.02 39.2801C2402.4 77.093 2432.33 118.571 2432.33 162.001Z" stroke="#F2EBFF"/>
<path d="M2371 162C2371 202.939 2342.79 242.045 2291.51 277.7C2240.24 313.345 2166.03 345.466 2074.28 372.449C1890.78 426.413 1637.25 459.798 1357.19 459.798C1077.12 459.798 823.594 426.413 640.096 372.449C548.344 345.466 474.13 313.345 422.864 277.7C371.584 242.045 343.369 202.939 343.369 162C343.369 121.061 371.584 81.9545 422.864 46.2995C474.13 10.6547 548.344 -21.4656 640.096 -48.4488C823.594 -102.413 1077.12 -135.798 1357.19 -135.798C1637.25 -135.798 1890.78 -102.413 2074.28 -48.4488C2166.03 -21.4656 2240.24 10.6547 2291.51 46.2995C2342.79 81.9545 2371 121.061 2371 162Z" stroke="#F2EBFF"/>
<path d="M2309.68 162C2309.68 200.449 2283.18 237.183 2235 270.68C2186.84 304.167 2117.12 334.344 2030.91 359.695C1858.51 410.396 1620.31 441.762 1357.19 441.762C1094.06 441.762 855.864 410.396 683.464 359.695C597.261 334.344 527.537 304.167 479.375 270.68C431.199 237.183 404.699 200.449 404.699 162C404.699 123.551 431.199 86.8173 479.375 53.3201C527.537 19.8331 597.261 -10.344 683.464 -35.6953C855.864 -86.3958 1094.06 -117.762 1357.19 -117.762C1620.31 -117.762 1858.51 -86.3958 2030.91 -35.6953C2117.12 -10.344 2186.84 19.8331 2235 53.3201C2283.18 86.8173 2309.68 123.551 2309.68 162Z" stroke="#F2EBFF"/>
<path d="M2248.35 162C2248.35 197.959 2223.56 232.32 2178.49 263.66C2133.43 294.989 2068.2 323.223 1987.55 346.942C1826.24 394.379 1603.38 423.726 1357.19 423.726C1111 423.726 888.131 394.379 726.83 346.942C646.176 323.223 580.943 294.989 535.884 263.66C490.811 232.32 466.028 197.959 466.028 162C466.028 126.041 490.811 91.6799 535.884 60.3405C580.943 29.0114 646.176 0.777489 726.83 -22.9418C888.131 -70.3784 1111 -99.7256 1357.19 -99.7256C1603.38 -99.7256 1826.24 -70.3784 1987.55 -22.9418C2068.2 0.777489 2133.43 29.0114 2178.49 60.3405C2223.56 91.6799 2248.35 126.041 2248.35 162Z" stroke="#F2EBFF"/>
<path d="M2191.74 162.001C2191.74 195.661 2168.54 227.832 2126.33 257.18C2084.14 286.517 2023.05 312.957 1947.52 335.17C1796.46 379.594 1587.75 407.078 1357.19 407.078C1126.63 407.078 917.918 379.594 766.861 335.17C691.33 312.957 630.242 286.517 588.048 257.18C545.839 227.832 522.64 195.661 522.64 162.001C522.64 128.341 545.839 96.1693 588.048 66.8217C630.242 37.4843 691.33 11.0442 766.861 -11.1686C917.918 -55.5925 1126.63 -83.0762 1357.19 -83.0762C1587.75 -83.0762 1796.46 -55.5925 1947.52 -11.1686C2023.05 11.0442 2084.14 37.4843 2126.33 66.8217C2168.54 96.1693 2191.74 128.341 2191.74 162.001Z" stroke="#F2EBFF"/>
<path d="M2125.69 162C2125.69 192.979 2104.34 222.595 2065.47 249.619C2026.62 276.632 1970.37 300.98 1900.81 321.435C1761.71 362.344 1569.51 387.654 1357.19 387.654C1144.87 387.654 952.666 362.344 813.562 321.435C744.006 300.98 687.754 276.632 648.902 249.619C610.036 222.595 588.685 192.979 588.685 162C588.685 131.022 610.036 101.405 648.902 74.3816C687.754 47.368 744.006 23.0206 813.562 2.56521C952.666 -38.3436 1144.87 -63.6533 1357.19 -63.6533C1569.51 -63.6533 1761.71 -38.3436 1900.81 2.56521C1970.37 23.0206 2026.62 47.368 2065.47 74.3816C2104.34 101.405 2125.69 131.022 2125.69 162Z" stroke="#F2EBFF"/>
<path d="M2064.36 162.001C2064.36 190.489 2044.72 217.734 2008.96 242.6C1973.21 267.455 1921.45 289.859 1857.45 308.683C1729.44 346.328 1552.57 369.619 1357.19 369.619C1161.8 369.619 984.934 346.328 856.927 308.683C792.921 289.859 741.16 267.455 705.412 242.6C669.649 217.734 650.014 190.489 650.014 162.001C650.014 133.513 669.649 106.269 705.412 81.4031C741.16 56.5473 792.921 34.1431 856.927 15.3197C984.934 -22.3253 1161.8 -45.6162 1357.19 -45.6162C1552.57 -45.6162 1729.44 -22.3253 1857.45 15.3197C1921.45 34.1431 1973.21 56.5473 2008.96 81.4031C2044.72 106.269 2064.36 133.513 2064.36 162.001Z" stroke="#F2EBFF"/>
<path d="M2003.03 162C2003.03 187.998 1985.11 212.87 1952.45 235.578C1919.81 258.276 1872.54 278.737 1814.08 295.929C1697.17 330.31 1535.64 351.582 1357.19 351.582C1178.74 351.582 1017.2 330.31 900.293 295.929C841.836 278.737 794.565 258.276 761.921 235.578C729.261 212.87 711.342 187.998 711.342 162C711.342 136.003 729.261 111.131 761.921 88.4226C794.565 65.7247 841.836 45.2637 900.293 28.0722C1017.2 -6.30889 1178.74 -27.5811 1357.19 -27.5811C1535.64 -27.5811 1697.17 -6.30889 1814.08 28.0722C1872.54 45.2637 1919.81 65.7247 1952.45 88.4226C1985.11 111.131 2003.03 136.003 2003.03 162Z" stroke="#F2EBFF"/>
<path d="M1936.98 162C1936.98 185.316 1920.91 207.633 1891.6 228.017C1862.29 248.391 1819.86 266.759 1767.38 282.193C1662.42 313.06 1517.4 332.158 1357.19 332.158C1196.98 332.158 1051.95 313.06 946.995 282.193C894.514 266.759 852.08 248.391 822.777 228.017C793.46 207.633 777.389 185.316 777.389 162C777.389 138.684 793.46 116.367 822.777 95.9825C852.08 75.6083 894.514 57.2401 946.995 41.806C1051.95 10.9399 1196.98 -8.1582 1357.19 -8.1582C1517.4 -8.1582 1662.42 10.9399 1767.38 41.806C1819.86 57.2401 1862.29 75.6083 1891.6 95.9825C1920.91 116.367 1936.98 138.684 1936.98 162Z" stroke="#F2EBFF"/>
<path d="M1875.65 162.001C1875.65 182.827 1861.3 202.771 1835.09 220.998C1808.89 239.214 1770.94 255.639 1724.01 269.441C1630.15 297.043 1500.46 314.123 1357.19 314.123C1213.91 314.123 1084.22 297.043 990.361 269.441C943.429 255.639 905.486 239.214 879.286 220.998C853.072 202.771 838.718 182.827 838.718 162.001C838.718 141.175 853.072 121.231 879.286 103.004C905.486 84.7876 943.429 68.3626 990.361 54.5605C1084.22 26.9583 1213.91 9.87891 1357.19 9.87891C1500.46 9.87891 1630.15 26.9583 1724.01 54.5605C1770.94 68.3626 1808.89 84.7876 1835.09 103.004C1861.3 121.231 1875.65 141.175 1875.65 162.001Z" stroke="#F2EBFF"/>
<path d="M1814.47 162.001C1814.47 180.342 1801.83 197.92 1778.71 213.994C1755.61 230.058 1722.15 244.544 1680.75 256.718C1597.96 281.065 1483.57 296.13 1357.19 296.13C1230.81 296.13 1116.41 281.065 1033.62 256.718C992.226 244.544 958.762 230.058 935.659 213.994C912.541 197.92 899.898 180.342 899.898 162.001C899.898 143.659 912.541 126.081 935.659 110.007C958.762 93.9434 992.226 79.4569 1033.62 67.2828C1116.41 42.9366 1230.81 27.8711 1357.19 27.8711C1483.57 27.8711 1597.96 42.9366 1680.75 67.2828C1722.15 79.4569 1755.61 93.9434 1778.71 110.007C1801.83 126.081 1814.47 143.659 1814.47 162.001Z" stroke="#F2EBFF"/>
<path d="M1752.99 162C1752.99 177.845 1742.07 193.045 1722.06 206.956C1702.07 220.857 1673.11 233.395 1637.28 243.933C1565.62 265.008 1466.59 278.049 1357.19 278.049C1247.78 278.049 1148.75 265.008 1077.09 243.933C1041.26 233.395 1012.3 220.857 992.306 206.956C972.299 193.045 961.377 177.845 961.377 162C961.377 146.155 972.299 130.956 992.306 117.045C1012.3 103.144 1041.26 90.6054 1077.09 80.0673C1148.75 58.993 1247.78 45.9512 1357.19 45.9512C1466.59 45.9512 1565.62 58.993 1637.28 80.0673C1673.11 90.6054 1702.07 103.144 1722.06 117.045C1742.07 130.956 1752.99 146.155 1752.99 162Z" stroke="#F2EBFF"/>
<path d="M1691.81 162C1691.81 175.361 1682.6 188.194 1665.69 199.952C1648.8 211.7 1624.31 222.3 1594.02 231.211C1533.43 249.029 1449.69 260.057 1357.19 260.057C1264.68 260.057 1180.94 249.029 1120.36 231.211C1090.06 222.3 1065.58 211.7 1048.68 199.952C1031.77 188.194 1022.56 175.361 1022.56 162C1022.56 148.639 1031.77 135.806 1048.68 124.048C1065.58 112.3 1090.06 101.7 1120.36 92.7896C1180.94 74.9713 1264.68 63.9434 1357.19 63.9434C1449.69 63.9434 1533.43 74.9713 1594.02 92.7896C1624.31 101.7 1648.8 112.3 1665.69 124.048C1682.6 135.806 1691.81 148.639 1691.81 162Z" stroke="#F2EBFF"/>
<path d="M1630.34 162C1630.34 172.864 1622.85 183.319 1609.05 192.915C1595.26 202.5 1575.28 211.152 1550.55 218.426C1501.08 232.973 1432.72 241.977 1357.19 241.977C1281.65 241.977 1213.29 232.973 1163.83 218.426C1139.09 211.152 1119.11 202.5 1105.32 192.915C1091.52 183.319 1084.03 172.864 1084.03 162C1084.03 151.135 1091.52 140.68 1105.32 131.085C1119.11 121.5 1139.09 112.848 1163.83 105.573C1213.29 91.0268 1281.65 82.0225 1357.19 82.0225C1432.72 82.0225 1501.08 91.0268 1550.55 105.573C1575.28 112.848 1595.26 121.5 1609.05 131.085C1622.85 140.68 1630.34 151.135 1630.34 162Z" stroke="#F2EBFF"/>
<path d="M1578.44 162C1578.44 170.758 1572.41 179.205 1561.23 186.975C1550.07 194.734 1533.89 201.742 1513.85 207.635C1473.78 219.42 1418.39 226.716 1357.19 226.716C1295.98 226.716 1240.59 219.42 1200.52 207.635C1180.48 201.742 1164.3 194.734 1153.14 186.975C1141.97 179.205 1135.93 170.758 1135.93 162C1135.93 153.243 1141.97 144.795 1153.14 137.026C1164.3 129.266 1180.48 122.259 1200.52 116.365C1240.59 104.58 1295.98 97.2842 1357.19 97.2842C1418.39 97.2842 1473.78 104.58 1513.85 116.365C1533.89 122.259 1550.07 129.266 1561.23 137.026C1572.41 144.795 1578.44 153.243 1578.44 162Z" stroke="#F2EBFF"/>
<path d="M1517.11 162.001C1517.11 168.268 1512.79 174.343 1504.72 179.955C1496.66 185.557 1484.97 190.621 1470.48 194.883C1441.51 203.404 1401.45 208.681 1357.18 208.681C1312.92 208.681 1272.86 203.404 1243.89 194.883C1229.4 190.621 1217.71 185.557 1209.65 179.955C1201.58 174.343 1197.26 168.268 1197.26 162.001C1197.26 155.734 1201.58 149.659 1209.65 144.047C1217.71 138.446 1229.4 133.381 1243.89 129.12C1272.86 120.599 1312.92 115.321 1357.18 115.321C1401.45 115.321 1441.51 120.599 1470.48 129.12C1484.97 133.381 1496.66 138.446 1504.72 144.047C1512.79 149.659 1517.11 155.734 1517.11 162.001Z" stroke="#F2EBFF"/>
<path d="M1465.22 162.001C1465.22 166.161 1462.35 170.229 1456.9 174.014C1451.47 177.79 1443.58 181.21 1433.79 184.091C1414.21 189.85 1387.12 193.419 1357.18 193.419C1327.25 193.419 1300.16 189.85 1280.58 184.091C1270.79 181.21 1262.89 177.79 1257.46 174.014C1252.02 170.229 1249.15 166.161 1249.15 162.001C1249.15 157.841 1252.02 153.773 1257.46 149.987C1262.89 146.211 1270.79 142.791 1280.58 139.91C1300.16 134.151 1327.25 130.582 1357.18 130.582C1387.12 130.582 1414.21 134.151 1433.79 139.91C1443.58 142.791 1451.47 146.211 1456.9 149.987C1462.35 153.773 1465.22 157.841 1465.22 162.001Z" stroke="#F2EBFF"/>
<path d="M1418.27 162C1418.27 164.235 1416.71 166.471 1413.64 168.591C1410.59 170.7 1406.14 172.62 1400.59 174.241C1389.5 177.48 1374.16 179.49 1357.19 179.49C1340.21 179.49 1324.87 177.48 1313.78 174.241C1308.23 172.62 1303.78 170.7 1300.73 168.591C1297.66 166.471 1296.1 164.235 1296.1 162C1296.1 159.764 1297.66 157.529 1300.73 155.409C1303.78 153.299 1308.23 151.379 1313.78 149.759C1324.87 146.52 1340.21 144.51 1357.19 144.51C1374.16 144.51 1389.5 146.52 1400.59 149.759C1406.14 151.379 1410.59 153.299 1413.64 155.409C1416.71 157.529 1418.27 159.764 1418.27 162Z" stroke="#F2EBFF"/>
</svg>
